<?xml version="1.0" encoding="UTF-8" standalone="no"?>
<svg width="800" height="600" xmlns="http://www.w3.org/2000/svg">
  <defs>
    <marker id="arrowhead" markerWidth="10" markerHeight="7" refX="9" refY="3.5" orient="auto">
      <polygon points="0 0, 10 3.5, 0 7" fill="#333"/>
    </marker>
  </defs>
  <style>
    .box { 
      fill: #fff;
      stroke: #0062cc;
      stroke-width: 2;
      rx: 5;
      ry: 5;
    }
    .header { 
      fill: #e3f2fd;
      stroke: #0062cc;
      stroke-width: 2;
      rx: 5;
      ry: 5;
    }
    .title { 
      fill: #0062cc; 
      font-family: 'Segoe UI', Tahoma, Geneva, Verdana, sans-serif;
      font-size: 16px;
      text-anchor: middle;
      font-weight: bold;
    }
    .item { 
      fill: #333; 
      font-family: 'Segoe UI', Tahoma, Geneva, Verdana, sans-serif;
      font-size: 12px;
      text-anchor: middle;
    }
    .connector { 
      stroke: #333;
      stroke-width: 2;
      marker-end: url(#arrowhead);
    }
    .diagram-title { 
      fill: #0062cc; 
      font-family: 'Segoe UI', Tahoma, Geneva, Verdana, sans-serif;
      font-size: 20px;
      text-anchor: middle;
      font-weight: bold;
    }
    .layer-title {
      fill: #0097a7;
      font-family: 'Segoe UI', Tahoma, Geneva, Verdana, sans-serif;
      font-size: 14px;
      font-weight: bold;
    }
  </style>
  
  <!-- Diagram Border -->
  <rect x="10" y="10" width="780" height="580" fill="white" stroke="#0062cc" stroke-width="2" rx="10" ry="10"/>
  
  <!-- Diagram Title -->
  <text x="400" y="40" class="diagram-title">CLASS DEPENDENCY DIAGRAM</text>
  
  <!-- REST Resources Box -->
  <rect x="50" y="80" width="180" height="30" class="header"/>
  <text x="140" y="100" class="title">REST Resources (Web)</text>
  <rect x="50" y="110" width="180" height="90" class="box"/>
  <text x="140" y="135" class="item">CustomerOrderResource</text>
  <text x="140" y="160" class="item">ProductResource</text>
  <text x="140" y="185" class="item">CategoryResource</text>
  
  <!-- Service Interfaces Box -->
  <rect x="310" y="80" width="180" height="30" class="header"/>
  <text x="400" y="100" class="title">Service Interfaces</text>
  <rect x="310" y="110" width="180" height="90" class="box"/>
  <text x="400" y="135" class="item">CustomerOrderServices</text>
  <text x="400" y="160" class="item">ProductSearchService</text>
  
  <!-- Service Implementation Box -->
  <rect x="570" y="80" width="180" height="30" class="header"/>
  <text x="660" y="100" class="title">Service Impl (EJB)</text>
  <rect x="570" y="110" width="180" height="90" class="box"/>
  <text x="660" y="135" class="item">CustomerOrderServicesImpl</text>
  <text x="660" y="160" class="item">ProductSearchServiceImpl</text>
  
  <!-- Domain Model Box -->
  <rect x="310" y="240" width="180" height="30" class="header"/>
  <text x="400" y="260" class="title">Domain Model (EJB)</text>
  <rect x="310" y="270" width="180" height="150" class="box"/>
  <text x="400" y="290" class="item">AbstractCustomer</text>
  <text x="400" y="310" class="item">BusinessCustomer</text>
  <text x="400" y="330" class="item">ResidentialCustomer</text>
  <text x="400" y="350" class="item">Order</text>
  <text x="400" y="370" class="item">LineItem</text>
  <text x="400" y="390" class="item">Product</text>
  <text x="400" y="410" class="item">Category</text>
  
  <!-- Persistence Box -->
  <rect x="310" y="450" width="180" height="30" class="header"/>
  <text x="400" y="470" class="title">Persistence (JPA)</text>
  <rect x="310" y="480" width="180" height="30" class="box"/>
  <text x="400" y="500" class="item">EntityManager</text>
  
  <!-- Database Box -->
  <rect x="310" y="530" width="180" height="30" class="header"/>
  <text x="400" y="550" class="title">Database</text>
  <rect x="310" y="560" width="180" height="50" class="box"/>
  <text x="400" y="580" class="item">ORDERDB</text>
  <text x="400" y="600" class="item">INDB</text>
  
  <!-- Connectors -->
  <!-- REST to Service Interfaces -->
  <line x1="230" y1="135" x2="310" y2="135" class="connector"/>
  <line x1="230" y1="160" x2="310" y2="160" class="connector"/>
  <line x1="230" y1="185" x2="265" y2="185" stroke="#333" stroke-width="2"/>
  <line x1="265" y1="185" x2="265" y2="145" stroke="#333" stroke-width="2"/>
  <line x1="265" y1="145" x2="310" y2="145" class="connector"/>
  
  <!-- Service Interfaces to Implementations -->
  <line x1="490" y1="135" x2="570" y2="135" class="connector"/>
  <line x1="490" y1="160" x2="570" y2="160" class="connector"/>
  
  <!-- REST to Domain direct -->
  <line x1="140" y1="200" x2="140" y2="345" stroke="#333" stroke-width="2"/>
  <line x1="140" y1="345" x2="310" y2="345" class="connector"/>
  
  <!-- Service Impl to Domain -->
  <line x1="660" y1="200" x2="660" y2="270" stroke="#333" stroke-width="2"/>
  <line x1="660" y1="270" x2="490" y2="270" class="connector"/>
  
  <!-- Domain to Persistence -->
  <line x1="400" y1="420" x2="400" y2="450" class="connector"/>
  
  <!-- Persistence to Database -->
  <line x1="400" y1="510" x2="400" y2="530" class="connector"/>
  
  <!-- EntityManager to Domain -->
  <line x1="490" y1="495" x2="700" y2="495" stroke="#333" stroke-width="2"/>
  <line x1="700" y1="495" x2="700" y2="345" stroke="#333" stroke-width="2"/>
  <line x1="700" y1="345" x2="490" y2="345" class="connector"/>
</svg>
