<?xml version="1.0" encoding="UTF-8" standalone="no"?>
<svg width="800" height="600" xmlns="http://www.w3.org/2000/svg">
  <defs>
    <marker id="arrowhead" markerWidth="10" markerHeight="7" refX="9" refY="3.5" orient="auto">
      <polygon points="0 0, 10 3.5, 0 7" fill="#333"/>
    </marker>
  </defs>
  <style>
    .box { 
      fill: #fff;
      stroke: #0062cc;
      stroke-width: 2;
      rx: 8;
      ry: 8;
    }
    .header { 
      fill: #e3f2fd;
      stroke: #0062cc;
      stroke-width: 2;
      rx: 8;
      ry: 8;
    }
    .title { 
      fill: #0062cc; 
      font-family: 'Segoe UI', Tahoma, Geneva, Verdana, sans-serif;
      font-size: 16px;
      font-weight: bold;
      text-anchor: middle;
    }
    .item { 
      fill: #333; 
      font-family: 'Segoe UI', Tahoma, Geneva, Verdana, sans-serif;
      font-size: 12px;
      text-anchor: middle;
    }
    .connector { 
      stroke: #333;
      stroke-width: 2;
      marker-end: url(#arrowhead);
    }
    .diagram-title { 
      fill: #0062cc; 
      font-family: 'Segoe UI', Tahoma, Geneva, Verdana, sans-serif;
      font-size: 20px;
      text-anchor: middle;
      font-weight: bold;
    }
    .layer-title {
      fill: #0097a7;
      font-family: 'Segoe UI', Tahoma, Geneva, Verdana, sans-serif;
      font-size: 14px;
      font-weight: bold;
    }
    .module {
      fill: #0097a7;
      stroke: #006064;
      stroke-width: 2;
      rx: 8;
      ry: 8;
    }
    .module-text {
      fill: white;
      font-family: 'Segoe UI', Tahoma, Geneva, Verdana, sans-serif;
      font-size: 14px;
      font-weight: bold;
      text-anchor: middle;
    }
    .layer-box {
      fill: #f5f7fa;
      stroke: #0062cc;
      stroke-width: 2;
      rx: 5;
      ry: 5;
    }
    .layer-text {
      fill: #0062cc;
      font-family: 'Segoe UI', Tahoma, Geneva, Verdana, sans-serif;
      font-size: 16px;
      font-weight: bold;
      text-anchor: start;
    }
  </style>
  
  <!-- Diagram Border -->
  <rect x="10" y="10" width="780" height="580" fill="white" stroke="#0062cc" stroke-width="2" rx="10" ry="10"/>
  
  <!-- Diagram Title -->
  <text x="400" y="40" class="diagram-title">MICRO-FRONTEND ARCHITECTURE</text>
  
  <!-- User Layer -->
  <rect x="50" y="60" width="700" height="60" class="layer-box" rx="10" ry="10"/>
  <text x="70" y="85" class="layer-text">User Interface Layer</text>
  <text x="400" y="105" class="item">Browser (Desktop, Mobile, Tablet)</text>
  
  <!-- React Shell Layer -->
  <rect x="50" y="140" width="700" height="80" class="layer-box" rx="10" ry="10"/>
  <text x="70" y="165" class="layer-text">React Shell Application</text>
  <rect x="120" y="175" width="550" height="35" class="header"/>
  <text x="400" y="198" class="title">Shared Components: Header, Navigation, Footer, Authentication</text>
  
  <!-- Micro-Frontend Modules Layer -->
  <rect x="50" y="240" width="700" height="100" class="layer-box" rx="10" ry="10"/>
  <text x="70" y="265" class="layer-text">Micro-Frontend Modules</text>
  
  <!-- Individual Modules -->
  <rect x="100" y="280" width="140" height="45" class="module"/>
  <text x="170" y="307" class="module-text">Product Catalog</text>
  
  <rect x="260" y="280" width="140" height="45" class="module"/>
  <text x="330" y="307" class="module-text">Customer Profile</text>
  
  <rect x="420" y="280" width="140" height="45" class="module"/>
  <text x="490" y="307" class="module-text">Order Management</text>
  
  <rect x="580" y="280" width="140" height="45" class="module"/>
  <text x="650" y="307" class="module-text">Payment</text>
  
  <!-- BFF Layer -->
  <rect x="50" y="360" width="700" height="80" class="layer-box" rx="10" ry="10"/>
  <text x="70" y="385" class="layer-text">Backend For Frontend (BFF) Layer</text>
  <rect x="120" y="395" width="270" height="35" class="box"/>
  <text x="255" y="418" class="title">API Gateway / Composition</text>
  <rect x="410" y="395" width="260" height="35" class="box"/>
  <text x="540" y="418" class="title">UI-specific Data Adapters</text>
  
  <!-- Microservices Layer -->
  <rect x="50" y="460" width="700" height="110" class="layer-box" rx="10" ry="10"/>
  <text x="70" y="485" class="layer-text">Microservices Layer</text>
  
  <!-- Individual Microservices -->
  <rect x="100" y="500" width="140" height="35" class="box"/>
  <text x="170" y="523" class="item">Product Service</text>
  
  <rect x="260" y="500" width="140" height="35" class="box"/>
  <text x="330" y="523" class="item">Customer Service</text>
  
  <rect x="420" y="500" width="140" height="35" class="box"/>
  <text x="490" y="523" class="item">Order Service</text>
  
  <rect x="580" y="500" width="140" height="35" class="box"/>
  <text x="650" y="523" class="item">Payment Service</text>
  
  <!-- Monolith Legacy Layer -->
  <rect x="190" y="545" width="420" height="35" class="box" stroke-dasharray="5,3"/>
  <text x="400" y="568" class="item">Monolith (Legacy) via Anti-Corruption Layer</text>
  
  <!-- Connectors -->
  <line x1="400" y1="120" x2="400" y2="140" class="connector"/>
  <line x1="400" y1="220" x2="400" y2="240" class="connector"/>
  <line x1="400" y1="340" x2="400" y2="360" class="connector"/>
  <line x1="400" y1="440" x2="400" y2="460" class="connector"/>
</svg>
