<?xml version="1.0" encoding="UTF-8" standalone="no"?>
<svg width="800" height="550" xmlns="http://www.w3.org/2000/svg">
  <defs>
    <marker id="arrowhead" markerWidth="10" markerHeight="7" refX="9" refY="3.5" orient="auto">
      <polygon points="0 0, 10 3.5, 0 7" fill="#333"/>
    </marker>
  </defs>
  <style>
    .box { 
      fill: #fff;
      stroke: #0062cc;
      stroke-width: 2;
      rx: 5;
      ry: 5;
    }
    .title { 
      fill: #0062cc; 
      font-family: 'Segoe UI', Tahoma, Geneva, Verdana, sans-serif;
      font-size: 20px;
      font-weight: bold;
      text-anchor: middle;
    }
    .service { 
      fill: #333; 
      font-family: 'Segoe UI', Tahoma, Geneva, Verdana, sans-serif;
      font-size: 14px;
      font-weight: bold;
      text-anchor: middle;
    }
    .connector { 
      stroke: #333;
      stroke-width: 2;
      marker-end: url(#arrowhead);
    }
    .relationship {
      fill: #0097a7;
      font-family: 'Segoe UI', Tahoma, Geneva, Verdana, sans-serif;
      font-size: 12px;
      font-style: italic;
    }
  </style>
  
  <!-- Diagram Border -->
  <rect x="10" y="10" width="780" height="530" fill="white" stroke="#0062cc" stroke-width="2" rx="10" ry="10"/>
  
  <!-- Diagram Title -->
  <text x="400" y="40" class="title">WEBSPHERE CONFIGURATION DEPENDENCIES</text>
  
  <!-- CustomerOrderServices Application -->
  <rect x="300" y="70" width="200" height="60" class="box"/>
  <text x="400" y="95" class="service">CustomerOrderServices</text>
  <text x="400" y="115" class="service">Application</text>
  
  <!-- JNDI Registry -->
  <rect x="300" y="210" width="200" height="40" class="box"/>
  <text x="400" y="235" class="service">JNDI Registry</text>
  
  <!-- Security Config -->
  <rect x="120" y="310" width="160" height="40" class="box"/>
  <text x="200" y="335" class="service">Security Config</text>
  
  <!-- JDBC DataSource -->
  <rect x="320" y="310" width="160" height="40" class="box"/>
  <text x="400" y="335" class="service">JDBC DataSource</text>
  
  <!-- JMS Resources -->
  <rect x="520" y="310" width="160" height="40" class="box"/>
  <text x="600" y="335" class="service">JMS Resources</text>
  
  <!-- LDAP Server -->
  <rect x="120" y="410" width="160" height="40" class="box"/>
  <text x="200" y="435" class="service">LDAP Server</text>
  
  <!-- Order Database -->
  <rect x="320" y="410" width="160" height="40" class="box"/>
  <text x="400" y="435" class="service">Order Database</text>
  
  <!-- Application depends on JNDI relationship -->
  <line x1="400" y1="130" x2="400" y2="210" class="connector"/>
  <text x="420" y="170" class="relationship">depends on</text>
  
  <!-- Security Config registers with JNDI relationship -->
  <line x1="200" y1="310" x2="200" y2="230" stroke="#333" stroke-width="2"/>
  <line x1="200" y1="230" x2="300" y2="230" class="connector"/>
  
  <!-- DataSource registered in JNDI relationship -->
  <line x1="400" y1="310" x2="400" y2="250" class="connector"/>
  <text x="410" y="280" class="relationship">looks up</text>
  
  <!-- JMS Resources registered in JNDI relationship -->
  <line x1="600" y1="310" x2="600" y2="230" stroke="#333" stroke-width="2"/>
  <line x1="600" y1="230" x2="500" y2="230" class="connector"/>
  
  <!-- Security Config depends on LDAP relationship -->
  <line x1="200" y1="350" x2="200" y2="410" class="connector"/>
  
  <!-- JDBC DataSource connects to Order Database relationship -->
  <line x1="400" y1="350" x2="400" y2="410" class="connector"/>
</svg>
